<svg xmlns="http://www.w3.org/2000/svg" viewBox="0 0 1080 370">
    <path
        d="M438.83,245.52c-.727,32.564,16.021,64.743,42.405,83.845s61.545,25.038,93.078,16.873a117.506,117.506,0,0,0,54.917-32.124c39.715-41.32,42.207-112.267,7.167-157.618-19.794-25.619-50.506-43.2-82.851-44.587-29.634-1.269-63.791,12.139-79.261,38.484C457.818,178.436,439.568,212.408,438.83,245.52Z"
        fill="#080F0F"
    />
    <path
        d="M435.829,245.52c-.726,32.564,20.022,61.743,46.406,80.844s60.545,32.039,92.078,23.874c20.793-5.384,38.032-24.639,52.917-40.125,39.715-41.319,39.207-108.266,4.167-153.617-19.794-25.619-45.506-43.2-77.851-44.587-29.634-1.269-60.791,15.139-76.261,41.484C460.818,181.436,436.568,212.408,435.829,245.52Z"
        fill="transparent"
    />

    <g >
        <path
            d="M559.376,211.148a3.712,3.712,0,0,0-2.387-1,11.863,11.863,0,0,0-11.8,7.326,6.913,6.913,0,0,0-.5,4.255,3.8,3.8,0,0,0,2.91,2.9c1.68.256,3.227-.906,4.431-2.1a30.589,30.589,0,0,0,6.216-9.312,9.755,9.755,0,0,1,1.133-2.067"
            fill="#00EFEB"
        />
        <path
            d="M559.376,195.743c-1.77-1.752-9.221-10.285-15.331-10.441-6.984-.179-15.221,2.686-15.311,9.938-.074,5.955,5.347,10.782,11.057,11.145,4.044.256,8.574-1.57,12.051-3.544a21.2,21.2,0,0,0,4.487-3.349,32.3,32.3,0,0,0,3.047-3.749"
            fill="#00EFEB"
        />
        <path
            d="M559.347,183.623a19.4,19.4,0,0,0,.753-3.894,35.041,35.041,0,0,0,.2-5.4,58.8,58.8,0,0,0-.7-7.714c-.79-4.889-2.1-10.414-6.081-13.713-3.02-2.5-8.447-4.477-11.978-1.859-2.92,2.165-2.772,6.63-2.686,9.222.263,7.946,5.072,13.5,6.446,15.042a27.06,27.06,0,0,0,9.4,6.758A20.692,20.692,0,0,0,559.347,183.623Z"
            fill="#00EFEB"
        />
    </g>

    <g>
        <path
            d="M560.156,183.939c3.023.525,9.806,1.2,16.264-2.577,2.124-1.242,7.065-4.133,7.968-9.4.15-.875.719-4.191-1.164-6.178-2.955-3.121-10-.914-13.788,1.343C562.189,171.448,560.554,181.684,560.156,183.939Z"
            fill="#00EFEB"
        />
        <path
            d="M560.156,195.321c2,1.331,11.216,7.468,13.846,9.142,3.649,2.321,8.235,2.889,12.027.572a12.529,12.529,0,0,0,5.929-9.86,6.49,6.49,0,0,0-.685-3.554,7.091,7.091,0,0,0-1.8-1.94,18.867,18.867,0,0,0-15.948-3.43,24.137,24.137,0,0,0-12.22,7.571c-.215.254-.955,1.216-1.152,1.5"
            fill="#00EFEB"
        />
        <path
            d="M560.156,211.148a9.826,9.826,0,0,1,1.133,2.067,30.586,30.586,0,0,0,6.215,9.312c1.2,1.2,2.752,2.36,4.431,2.1a3.806,3.806,0,0,0,2.911-2.9,6.913,6.913,0,0,0-.5-4.255,11.863,11.863,0,0,0-11.8-7.326,3.705,3.705,0,0,0-2.387,1"
            fill="#00EFEB"
        />
    </g>

    <line
        x1="560"
        y1="250"
        x2="560"
        y2="183"
        fill="none"
        stroke="#00EFEB"
        strokeLinecap="round"
        strokeMiterlimit="10"
        strokeWidth="1"
    />

    <g strokeWidth="1">
        <path
            d="M475.8,295.474a9.565,9.565,0,0,1-1.214-5.158,26.657,26.657,0,0,1,1.524-8.206,70.213,70.213,0,0,1,3.959-9.451,89.989,89.989,0,0,1,5.5-9.426,88,88,0,0,1,6.141-8.212,44.6,44.6,0,0,1,5.8-5.8c1.768-1.423,3.274-2.145,4.477-2.145a3.37,3.37,0,0,1,2.906,1.5,13.024,13.024,0,0,1,1.845,4.257,38.425,38.425,0,0,1,1.03,6.144q.321,3.477.609,7.2c.19,2.486.407,4.961.646,7.356a48.291,48.291,0,0,0,1.047,6.5,13.984,13.984,0,0,0,1.953,4.706,4.037,4.037,0,0,0,3.441,1.906,6.535,6.535,0,0,0,4.728-2.074,16.323,16.323,0,0,0,3.373-5.2,34.027,34.027,0,0,0,2.065-7.026,41.4,41.4,0,0,0,.723-7.557c0-1.008-.037-2.006-.109-2.965a21.854,21.854,0,0,0-.4-2.841"
            fill="none"
            stroke="#00EFEB"
            strokeLinecap="round"
            strokeLinejoin="round"
        />
        <path
            d="M537.265,282.89a2.466,2.466,0,0,0-.227-1.187c-.1-.245-.329-.571-1.146-.571a3.249,3.249,0,0,0-1.421.392,7.545,7.545,0,0,0-1.507.993,5.46,5.46,0,0,0-1.112,1.28,2.371,2.371,0,0,0-.414,1.214,1.053,1.053,0,0,0,.189.7.724.724,0,0,0,.572.195,2.14,2.14,0,0,0,.308-.024,6.12,6.12,0,0,0,3.071-1.842l.231-.222.242.211a7.182,7.182,0,0,0,2.359,1.4,7.947,7.947,0,0,0,2.643.446,12.312,12.312,0,0,0,4.112-.8,22.2,22.2,0,0,0,4.058-1.915"
            fill="none"
            stroke="#00EFEB"
            strokeLinecap="round"
            strokeLinejoin="round"
        />
        <path
            d="M550.107,274c-4,15,5,15,5,15"
            fill="none"
            stroke="#00EFEB"
            strokeLinecap="round"
            strokeLinejoin="round"
        />
        <path
            d="M540.592,278.09h0a.288.288,0,0,1,.146-.044l4.3-.965c1.423-.319,2.807-.617,4.192-.9l.6-.1.545-.112c3.711-.76,7.478-1.385,11.193-1.859,3.734-.475,7.739-.787,11.9-.93"
            fill="none"
            stroke="#00EFEB"
            strokeLinecap="round"
            strokeLinejoin="round"
        />
        <path
            d="M562.1,281.818a11.11,11.11,0,0,0-.451,1.147,9.374,9.374,0,0,0-.335,1.3,6.69,6.69,0,0,0-.112,1.137c0,.6.365.816.708.816a4,4,0,0,0,2.4-1.008,10.556,10.556,0,0,0,2.113-2.224c.106-.152.182-.192.208-.192s.143.056.3.268a8.539,8.539,0,0,0,1.564,1.712,3.928,3.928,0,0,0,2.589.8,7.927,7.927,0,0,0,2.025-.3c.725-.193,1.47-.424,2.214-.689s1.427-.539,2.073-.836a9.416,9.416,0,0,0,1.492-.823"
            fill="none"
            stroke="#00EFEB"
            strokeLinecap="round"
            strokeLinejoin="round"
        />
        <path
            d="M578.339,281a1.591,1.591,0,0,0,1.075,1.541,2.655,2.655,0,0,0,1.034.19,5.307,5.307,0,0,0,1.5-.249.349.349,0,0,1,.113-.023c.027,0,.067,0,.126.106a.288.288,0,0,1-.039.366,3.893,3.893,0,0,0-.605,1.394,6.157,6.157,0,0,0-.188,1.406,1.56,1.56,0,0,0,.756,1.29,2.717,2.717,0,0,0,1.6.494,24.958,24.958,0,0,0,4.072-.364,39.892,39.892,0,0,0,4.339-.976,34.57,34.57,0,0,0,4.128-1.448,21.443,21.443,0,0,0,3.5-1.859"
            fill="none"
            stroke="#00EFEB"
            strokeLinecap="round"
            strokeLinejoin="round"
        />
        <path
            d="M604.214,282.882a1.65,1.65,0,0,0-.11-.867.951.951,0,0,0-.971-.58,3.087,3.087,0,0,0-1.376.36,6.158,6.158,0,0,0-1.292.873,6.94,6.94,0,0,0-1.02,1.1,2.127,2.127,0,0,0-.461,1.247.559.559,0,0,0,.576.6l.1-.007a2.58,2.58,0,0,0,.875-.326,11.656,11.656,0,0,0,1.071-.665,12.508,12.508,0,0,0,1.18-.921c.236-.2.356-.212.388-.212a.937.937,0,0,1,.425.268,5.552,5.552,0,0,0,2.371,1.451,8.311,8.311,0,0,0,2.321.372,17.963,17.963,0,0,0,7.315-2.071l.41-.2.315-.128a20.461,20.461,0,0,0,4.547-2.5,20.17,20.17,0,0,0,3.241-2.958,11.7,11.7,0,0,0,1.915-2.957,6.583,6.583,0,0,0,.617-2.515,2.564,2.564,0,0,0-.561-1.744,2.063,2.063,0,0,0-1.67-.63,5.76,5.76,0,0,0-2.939.918,11.934,11.934,0,0,0-2.923,2.543,13.922,13.922,0,0,0-2.237,3.742,11.757,11.757,0,0,0-.871,4.491,5.442,5.442,0,0,0,1.314,3.678c.858.99,2.3,1.492,4.287,1.492a15.951,15.951,0,0,0,4.521-.809,29.682,29.682,0,0,0,6.106-2.835"
            fill="none"
            stroke="#00EFEB"
            strokeLinecap="round"
            strokeLinejoin="round"
        />
    </g>
</svg>